<svg xmlns="http://www.w3.org/2000/svg" viewBox="0 0 64 64" role="img" aria-label="Wujidadi icon">
  <defs>
    <linearGradient id="bg" x1="4" y1="6" x2="60" y2="58" gradientUnits="userSpaceOnUse">
      <stop stop-color="#efe2b0"/>
      <stop offset="0.48" stop-color="#d8bc65"/>
      <stop offset="1" stop-color="#c79a28"/>
    </linearGradient>
    <linearGradient id="jade" x1="17" y1="14" x2="48" y2="51" gradientUnits="userSpaceOnUse">
      <stop stop-color="#9be7d7"/>
      <stop offset="1" stop-color="#1f8f86"/>
    </linearGradient>
    <filter id="softShadow" x="-20%" y="-20%" width="140%" height="140%">
      <feDropShadow dx="0" dy="2" stdDeviation="2" flood-color="#6f4a1f" flood-opacity="0.28"/>
    </filter>
  </defs>
  <rect width="64" height="64" rx="16" fill="url(#bg)"/>
  <path d="M8 12c9 3 15 3 24 0s15-3 24 0M8 52c9-3 15-3 24 0s15 3 24 0" fill="none" stroke="#f5e7ba" stroke-width="2" stroke-linecap="round" opacity="0.55"/>
  <rect x="7" y="7" width="50" height="50" rx="12" fill="#ffffff" fill-opacity="0.12" stroke="#7a531d" stroke-width="2.5" filter="url(#softShadow)"/>
  <path d="M18 12h-6v13M46 12h6v13M12 39v13h13M52 39v13h-13" fill="none" stroke="#7a531d" stroke-width="3" stroke-linecap="round" stroke-linejoin="round"/>
  <circle cx="32" cy="32" r="18" fill="url(#jade)" stroke="#0f3f4a" stroke-width="2"/>
  <circle cx="32" cy="32" r="6.5" fill="#f0d887" stroke="#0f3f4a" stroke-width="2"/>
  <path d="M32 13v10M32 41v10M13 32h10M41 32h10M19 19l7 7M38 38l7 7M45 19l-7 7M26 38l-7 7" fill="none" stroke="#0f3f4a" stroke-width="2.5" stroke-linecap="round"/>
  <circle cx="32" cy="13" r="2.6" fill="#dffdf5"/>
  <circle cx="32" cy="51" r="2.6" fill="#dffdf5"/>
  <circle cx="13" cy="32" r="2.6" fill="#dffdf5"/>
  <circle cx="51" cy="32" r="2.6" fill="#dffdf5"/>
  <path d="M22 32c4-9 16-9 20 0c-4 9-16 9-20 0Z" fill="none" stroke="#f9efd0" stroke-width="2" stroke-linejoin="round" opacity="0.86"/>
</svg>
